<svg width="280" height="280" viewBox="0 0 280 280" fill="none" xmlns="http://www.w3.org/2000/svg">
<g clip-path="url(#clip0_5_2)">
<path d="M120 149C120 140.163 127.163 133 136 133H262.242C277.879 133 285.222 152.332 273.528 162.713L146.622 275.368C136.301 284.529 120 277.203 120 263.402V149Z" fill="black"/>
<path d="M26.5604 271.049C20.0146 284.345 0 279.686 0 264.866V15C0 6.71573 6.71573 0 15 0H160H194.58C198.082 0 201.475 1.24496 204.168 3.51901L274.589 62.9705C278.017 65.8649 280 70.1581 280 74.6859V102.784C280 115.546 265.076 122.478 255.324 114.245L162.726 36.0709C155.449 29.9273 144.348 32.1518 140 40.625L120 81.25L80 162.5L26.5604 271.049Z" fill="black"/>
</g>
<defs>
<clipPath id="clip0_5_2">
<rect width="280" height="280" fill="white"/>
</clipPath>
</defs>
</svg>
